<svg width="33" height="33" viewBox="0 0 33 33" fill="none" xmlns="http://www.w3.org/2000/svg">
<path d="M18.1263 1.623L31.8763 15.373C32.0846 15.5813 32.2326 15.807 32.3201 16.0501C32.4062 16.2931 32.4492 16.5536 32.4492 16.8313C32.4492 17.1091 32.4062 17.3695 32.3201 17.6126C32.2326 17.8556 32.0846 18.0813 31.8763 18.2897L18.1263 32.0397C17.7444 32.4216 17.2673 32.6216 16.6951 32.6397C16.1214 32.6563 15.6263 32.4563 15.2096 32.0397C14.793 31.6577 14.5756 31.1806 14.5576 30.6084C14.5409 30.0348 14.7409 29.5397 15.1576 29.123L25.3659 18.9147L2.08464 18.9147C1.49436 18.9147 0.999221 18.7154 0.599222 18.3167C0.200609 17.9167 0.00130214 17.4216 0.00130219 16.8313C0.00130225 16.241 0.200609 15.7466 0.599222 15.348C0.999221 14.948 1.49436 14.748 2.08464 14.748L25.3659 14.748L15.1576 4.53966C14.7756 4.15772 14.5756 3.6716 14.5576 3.08133C14.5409 2.49105 14.7409 2.00494 15.1576 1.623C15.5395 1.20633 16.0256 0.997994 16.6159 0.997994C17.2062 0.997994 17.7096 1.20633 18.1263 1.623Z" fill="#303030"/>
</svg>
